<?xml version="1.0" standalone="no"?><!DOCTYPE svg PUBLIC "-//W3C//DTD SVG 1.1//EN" "http://www.w3.org/Graphics/SVG/1.1/DTD/svg11.dtd"><svg t="1666083799340" class="icon" viewBox="0 0 1024 1024" version="1.1" xmlns="http://www.w3.org/2000/svg" p-id="5246" xmlns:xlink="http://www.w3.org/1999/xlink" width="16" height="16"><path d="M422.4 512c-19.2-25.6-51.2-51.2-76.8-70.4-83.2-70.4-160-140.8-172.8-345.6h-25.6c-19.2 0-38.4-19.2-38.4-38.4s19.2-38.4 38.4-38.4h710.4c19.2 0 38.4 19.2 38.4 38.4s-19.2 38.4-38.4 38.4H832c-6.4 204.8-89.6 268.8-172.8 345.6-25.6 19.2-51.2 44.8-76.8 70.4 25.6 25.6 51.2 51.2 76.8 70.4 83.2 70.4 166.4 140.8 172.8 345.6h25.6c19.2 0 38.4 19.2 38.4 38.4s-19.2 38.4-38.4 38.4H147.2c-19.2 0-38.4-19.2-38.4-38.4s19.2-38.4 38.4-38.4h25.6c6.4-204.8 89.6-268.8 172.8-345.6 25.6-19.2 57.6-44.8 76.8-70.4z m-172.8 416h32l204.8-204.8c6.4-6.4 25.6-6.4 32 0l204.8 204.8h32c-6.4-172.8-76.8-224-147.2-288-32-32-70.4-57.6-102.4-102.4-38.4 44.8-70.4 70.4-108.8 102.4-70.4 64-140.8 115.2-147.2 288z m96 0h320L505.6 768l-160 160z m-32-633.6H704c32-44.8 57.6-102.4 57.6-198.4h-512c6.4 96 25.6 153.6 64 198.4z m345.6 44.8H352c12.8 19.2 32 32 44.8 44.8 38.4 32 70.4 64 108.8 108.8C537.6 441.6 576 416 614.4 384c12.8-12.8 32-25.6 44.8-44.8z" fill="#2c2c2c" p-id="5247"></path></svg>