<?xml version="1.0" standalone="no"?><!DOCTYPE svg PUBLIC "-//W3C//DTD SVG 1.1//EN" "http://www.w3.org/Graphics/SVG/1.1/DTD/svg11.dtd"><svg t="1666085470889" class="icon" viewBox="0 0 1024 1024" version="1.1" xmlns="http://www.w3.org/2000/svg" p-id="10852" xmlns:xlink="http://www.w3.org/1999/xlink" width="16" height="16"><path d="M772.260535 901.910361l-70.194712 0 0-17.548678 70.194712 0c14.513552 0 26.322505-11.80793 26.322505-26.323529l0-5.569856 17.548678 0 0 5.569856C816.132742 882.231159 796.451494 901.910361 772.260535 901.910361zM678.667927 901.910361l-70.194712 0 0-17.548678 70.194712 0L678.667927 901.910361zM585.075319 901.910361 514.880607 901.910361l0-17.548678 70.194712 0L585.075319 901.910361zM491.482711 901.910361l-70.194712 0 0-17.548678 70.194712 0L491.482711 901.910361zM397.889079 901.910361l-70.194712 0 0-17.548678 70.194712 0L397.889079 901.910361zM304.296471 901.910361l-57.724703 0c-5.242398 0-10.382465-0.928139-15.277962-2.755764l6.14393-16.440437c2.923586 1.093914 5.996574 1.647523 9.134031 1.647523l57.724703 0L304.296471 901.910361zM209.17095 880.914164c-4.233418-6.888897-6.470365-14.798031-6.470365-22.87601l0-50.949392 17.548678 0 0 50.949392c0 4.833075 1.339508 9.562796 3.871167 13.684674L209.17095 880.914164zM816.132742 829.071426l-17.548678 0L798.584064 758.876714l17.548678 0L816.132742 829.071426zM220.249263 783.691889 202.700585 783.691889l0-70.194712 17.548678 0L220.249263 783.691889zM816.132742 735.477794l-17.548678 0 0-70.194712 17.548678 0L816.132742 735.477794zM220.249263 690.098257 202.700585 690.098257l0-70.194712 17.548678 0L220.249263 690.098257zM816.132742 641.885186l-17.548678 0 0-70.194712 17.548678 0L816.132742 641.885186zM220.249263 596.505649 202.700585 596.505649l0-70.194712 17.548678 0L220.249263 596.505649zM816.132742 548.292578l-17.548678 0 0-70.193689 17.548678 0L816.132742 548.292578zM220.249263 502.913041 202.700585 502.913041 202.700585 432.718329l17.548678 0L220.249263 502.913041zM816.132742 454.700993l-17.548678 0 0-70.195735 17.548678 0L816.132742 454.700993zM220.249263 409.319409 202.700585 409.319409l0-70.194712 17.548678 0L220.249263 409.319409zM816.132742 361.106338l-17.548678 0 0-70.194712 17.548678 0L816.132742 361.106338zM220.249263 315.726801 202.700585 315.726801l0-70.194712 17.548678 0L220.249263 315.726801zM816.132742 267.51373l-17.548678 0 0-70.194712 17.548678 0L816.132742 267.51373zM220.249263 222.134193 202.700585 222.134193l0-68.818365c0-0.581238 0.011256-1.158383 0.033769-1.732457l17.534352 0.711198c-0.014326 0.339738-0.020466 0.679475-0.020466 1.02126L220.24824 222.134193zM816.132742 173.921121l-17.548678 0 0-20.605294c0-12.8077-9.544377-23.984251-22.199605-25.997094l2.758834-17.331737c21.087271 3.357468 36.989449 21.98471 36.989449 43.328831L816.132742 173.921121zM226.567155 136.272663l-13.341866-11.401678c8.378831-9.80225 20.531616-15.425318 33.345456-15.426341l39.854707 0 0 17.548678-39.85266 0C238.896972 126.994346 231.604892 130.376373 226.567155 136.272663zM754.390539 126.993323l-70.195735 0L684.194804 109.444645l70.195735 0L754.390539 126.993323zM660.796908 126.993323l-70.194712 0L590.602196 109.444645l70.194712 0L660.796908 126.993323zM567.203276 126.993323l-70.194712 0L497.008564 109.444645l70.194712 0L567.203276 126.993323zM473.610668 126.993323l-70.194712 0L403.415956 109.444645l70.194712 0L473.610668 126.993323zM380.01806 126.993323l-70.194712 0L309.823348 109.444645l70.194712 0L380.01806 126.993323z" p-id="10853" fill="#2c2c2c"></path><path d="M206.748784 845.202824c-10.345626 0-20.423145-3.707438-28.379351-10.4367l11.333116-13.396101c3.740184 3.162016 8.248871 5.215792 12.997012 5.966898l0-31.975249 17.548678 0 0 48.399313-7.583722 1.039679C210.707956 845.065701 208.716602 845.202824 206.748784 845.202824zM163.725922 810.011324l-0.181125-0.959861-12.125155-68.312852 17.277502-3.067872 12.245905 68.952418L163.725922 810.011324zM220.249263 771.963777 202.700585 771.963777l0-70.194712 17.548678 0L220.249263 771.963777zM147.33051 717.700919l-12.266371-69.115124 17.278525-3.067872 12.264325 69.115124L147.33051 717.700919zM220.249263 678.371168 202.700585 678.371168l0-70.194712 17.548678 0L220.249263 678.371168zM130.97603 625.548102l-12.267395-69.115124 17.277502-3.067872 12.267395 69.115124L130.97603 625.548102zM220.249263 584.777537 202.700585 584.777537 202.700585 514.582825l17.548678 0L220.249263 584.777537zM114.619504 533.394263l-12.267395-69.115124 17.277502-3.067872 12.267395 69.115124L114.619504 533.394263zM220.249263 491.184929 202.700585 491.184929l0-70.194712 17.548678 0L220.249263 491.184929zM98.264001 441.24247l-12.266371-69.115124 17.277502-3.067872 12.266371 69.115124L98.264001 441.24247zM220.249263 397.59232 202.700585 397.59232l0-70.194712 17.548678 0L220.249263 397.59232zM81.908498 349.08863l-12.267395-69.115124 17.277502-3.067872 12.267395 69.115124L81.908498 349.08863zM220.249263 303.998689 202.700585 303.998689l0-70.194712 17.548678 0L220.249263 303.998689zM65.525366 256.532631c-0.245593-1.876744-0.369414-3.783163-0.369414-5.665023 0-21.318538 15.226796-39.494503 36.205597-43.216267l16.427134-2.916423 3.064802 17.278525-16.426111 2.914376c-12.58769 2.234901-21.722744 13.143345-21.722744 25.938766 0 1.125637 0.074701 2.266623 0.221034 3.39226L65.525366 256.532631zM143.893224 217.923288l-3.067872-17.277502 79.422887-14.09502 0 23.855314L202.700585 210.406081l0-2.919493L143.893224 217.923288z" p-id="10854" fill="#2c2c2c"></path><path d="M817.922505 845.242733c-2.552126 0-5.121648-0.226151-7.638981-0.671289l-11.69946-2.079358 0-13.986549 9.952676 0 0.357134-2.004657 4.452405 0.791016c1.50426 0.268106 3.046383 0.403183 4.575202 0.403183 12.795421 0 23.704888-9.134031 25.941835-21.721721l0.686638-3.867074 17.277502 3.067872-0.686638 3.867074C857.417007 830.016961 839.240019 845.242733 817.922505 845.242733zM816.132742 805.107641l-17.548678 0 0-70.194712 17.548678 0L816.132742 805.107641zM865.916589 782.134417l-17.277502-3.067872 12.266371-69.115124 17.277502 3.067872L865.916589 782.134417zM816.132742 711.51401l-17.548678 0L798.584064 641.319298l17.548678 0L816.132742 711.51401zM882.271068 689.9816l-17.277502-3.067872 12.267395-69.115124 17.277502 3.067872L882.271068 689.9816zM816.132742 617.921401l-17.548678 0 0-70.194712 17.548678 0L816.132742 617.921401zM898.627594 597.827761l-17.277502-3.067872 12.266371-69.112054 17.277502 3.067872L898.627594 597.827761zM816.132742 524.328793l-17.548678 0 0-70.193689 17.548678 0L816.132742 524.328793zM914.982074 505.676991l-17.277502-3.067872 12.267395-69.115124 17.277502 3.067872L914.982074 505.676991zM816.132742 430.737208l-17.548678 0 0-70.194712 17.548678 0L816.132742 430.737208zM931.3386 413.524175l-17.277502-3.067872 12.266371-69.115124 17.277502 3.067872L931.3386 413.524175zM816.132742 337.1446l-17.548678 0 0-70.194712 17.548678 0L816.132742 337.1446zM947.69308 321.370335l-17.277502-3.067872 11.156084-62.856583c0.268106-1.51347 0.404206-3.053546 0.404206-4.578272l17.548678-0.211824c0 2.76088-0.227174 5.334495-0.675382 7.855922L947.69308 321.370335zM816.132742 243.550968l-17.548678 0 0-58.038858 32.584116 5.782703-3.067872 17.277502-11.967566-2.12336L816.132742 243.550968zM936.208515 234.470149c-4.003174-5.036713-9.668197-8.42488-15.95539-9.541307L851.139024 212.662471l3.067872-17.277502 69.115124 12.266371c10.502192 1.863441 19.957541 7.510044 26.625404 15.899108L936.208515 234.470149z" p-id="10855" fill="#2c2c2c"></path><path d="M382.925273 448.148763c-25.067932 0-45.462424-20.394493-45.462424-45.462424 0-25.067932 20.394493-45.462424 45.462424-45.462424 25.067932 0 45.462424 20.394493 45.462424 45.462424C428.387697 427.754271 407.993205 448.148763 382.925273 448.148763zM382.925273 374.772592c-15.392572 0-27.913746 12.522198-27.913746 27.913746s12.522198 27.913746 27.913746 27.913746 27.913746-12.522198 27.913746-27.913746S398.317845 374.772592 382.925273 374.772592z" p-id="10856" fill="#2c2c2c"></path><path d="M635.907031 448.148763c-25.067932 0-45.462424-20.394493-45.462424-45.462424 0-25.067932 20.394493-45.462424 45.462424-45.462424s45.462424 20.394493 45.462424 45.462424C681.370479 427.754271 660.974963 448.148763 635.907031 448.148763zM635.907031 374.772592c-15.392572 0-27.913746 12.522198-27.913746 27.913746s12.522198 27.913746 27.913746 27.913746c15.392572 0 27.913746-12.522198 27.913746-27.913746S651.299603 374.772592 635.907031 374.772592z" p-id="10857" fill="#2c2c2c"></path><path d="M583.795163 645.546575c-12.856819-29.68509-42.053792-48.863894-74.379011-48.863894-32.327266 0-61.522192 19.179828-74.377988 48.863894l-16.10377-6.974855c15.639189-36.108383 51.155077-59.437717 90.480734-59.437717 39.325657 0 74.841545 23.329335 90.482781 59.437717L583.795163 645.546575z" p-id="10858" fill="#2c2c2c"></path></svg>