<svg xmlns="http://www.w3.org/2000/svg" width="296.295" height="90.436" viewBox="0 0 296.295 90.436"><defs><style>.a,.b,.c{fill:#27be8f;}.a{font-size:49px;font-family:SourceHanSansCN-Bold, Source Han Sans CN;font-weight:700;}.b{font-size:16px;font-family:SourceHanSansCN-Regular, Source Han Sans CN;letter-spacing:0.52em;}</style></defs><g transform="translate(850.105 12456.502)"><text class="a" transform="translate(-653.852 -12404.524)"><tspan x="-98" y="0">智笔课堂</tspan></text><text class="b" transform="translate(-654.068 -12372.64)"><tspan x="-92.64" y="0">ZHIBIKETANG</tspan></text><g transform="translate(-850.105 -12456.502)"><path class="c" d="M35.5,66.909c-.77,0-1.518-.012-2.221-.035-2.879-.1-5.494-.264-7.774-.5-1.829-.189-3.444-.421-4.8-.689a20.489,20.489,0,0,1-2.434-.61,5.364,5.364,0,0,1-.675-.262h0L0,15.567H0c.167-.126.791-.591,1.816-1.279,1.076-.723,2.825-1.848,5.053-3.1a81.354,81.354,0,0,1,7.681-3.809,71.362,71.362,0,0,1,9.7-3.4c3.2-.859,6.625-1.6,10.192-2.209C37.3,1.28,40.248.88,43.207.576,45.836.306,47.993.164,49.34.092,50.8.014,51.645,0,51.651,0h0l1.231,7.118L35.554,37.131,53.825,47.68l4.674-8.1,4.2,24.291h0c-.4.079-4,.8-8.989,1.516-3.052.439-6,.79-8.774,1.042C41.478,66.75,38.306,66.909,35.5,66.909Zm-.679-27.152L34.706,59.7,51.914,49.625l-17.09-9.869Z" transform="translate(8.921 23.527)"/><g transform="translate(0 0)"><path class="c" d="M-3804-23384.908l.729,1.6s3.765-4.809,15.476-10.387,29-8.783,30.465-8.576c-.279-1.531-1.185-6.762-1.185-6.762a81.75,81.75,0,0,0-21.542,7.32,94.652,94.652,0,0,0-20.678,13.59C-3803.746-23385.479-3804-23384.908-3804-23384.908Z" transform="translate(3811.471 23420.322)"/><path class="c" d="M-3871-23474.811l20.592,52.879h3.834l-19.712-52.879a54.069,54.069,0,0,1,17.533-17.357,135.933,135.933,0,0,1,23.354-11.572l-1.115-6.555a132.636,132.636,0,0,0-26.631,16.1A88.366,88.366,0,0,0-3871-23474.811Z" transform="translate(3871 23510.295)"/></g></g><rect class="c" width="195.813" height="0.446" transform="translate(-749.622 -12392.885)"/><rect class="c" width="195.813" height="0.446" transform="translate(-749.622 -12391.547)"/></g></svg>